<mxfile host="Electron" agent="Mozilla/5.0 (X11; Linux x86_64) AppleWebKit/537.36 (KHTML, like Gecko) draw.io/26.2.15 Chrome/134.0.6998.205 Electron/35.2.1 Safari/537.36" version="26.2.15">
  <diagram id="aQhpeuAyKN3efvRNQwSn" name="Draft 0">
    <mxGraphModel dx="2066" dy="1164" grid="0" gridSize="10" guides="0" tooltips="1" connect="1" arrows="1" fold="1" page="1" pageScale="1" pageWidth="1169" pageHeight="1654" math="0" shadow="0">
      <root>
        <mxCell id="0" />
        <mxCell id="1" parent="0" />
        <mxCell id="fcTpW-OK2idnTcLYPNtl-1" value="" style="endArrow=none;dashed=1;html=1;dashPattern=1 3;strokeWidth=3;rounded=0;strokeColor=light-dark(#ff0000, #ededed);" parent="1" edge="1">
          <mxGeometry width="50" height="50" relative="1" as="geometry">
            <mxPoint x="108" y="258" as="sourcePoint" />
            <mxPoint x="921" y="258" as="targetPoint" />
          </mxGeometry>
        </mxCell>
        <mxCell id="gou46OdMyQ_DH9dvmqBt-81" value="worker_pool_t on PHY" style="rounded=1;whiteSpace=wrap;html=1;fillColor=#dae8fc;strokeColor=none;verticalAlign=top;dashed=1;" parent="1" vertex="1">
          <mxGeometry x="310" y="490" width="580" height="330" as="geometry" />
        </mxCell>
        <mxCell id="vZWcNvBMRIUGTZHltfeC-5" value="" style="endArrow=classic;html=1;rounded=1;exitX=0.25;exitY=1;exitDx=0;exitDy=0;entryX=0.25;entryY=0;entryDx=0;entryDy=0;strokeColor=light-dark(#ff0000, #ededed);strokeWidth=3;" parent="1" source="tikB4HTSyY_nNc-XHg-T-57" target="tikB4HTSyY_nNc-XHg-T-13" edge="1">
          <mxGeometry width="50" height="50" relative="1" as="geometry">
            <mxPoint x="570" y="440" as="sourcePoint" />
            <mxPoint x="529" y="629" as="targetPoint" />
            <Array as="points">
              <mxPoint x="510" y="540" />
            </Array>
          </mxGeometry>
        </mxCell>
        <mxCell id="gou46OdMyQ_DH9dvmqBt-85" value="app_t (app=application) on Application Layer&amp;nbsp;" style="rounded=1;whiteSpace=wrap;html=1;fillColor=#dae8fc;strokeColor=none;verticalAlign=top;dashed=1;" parent="1" vertex="1">
          <mxGeometry x="440" y="50" width="280" height="200" as="geometry" />
        </mxCell>
        <mxCell id="A43RT7BLHncz933INCX8-49" value="" style="endArrow=classic;html=1;rounded=1;exitX=0;exitY=0.5;exitDx=0;exitDy=0;entryX=0.022;entryY=0.045;entryDx=0;entryDy=0;strokeColor=light-dark(#ff0000, #ededed);strokeWidth=3;entryPerimeter=0;" parent="1" source="gou46OdMyQ_DH9dvmqBt-38" target="tikB4HTSyY_nNc-XHg-T-13" edge="1">
          <mxGeometry width="50" height="50" relative="1" as="geometry">
            <mxPoint x="100" y="210" as="sourcePoint" />
            <mxPoint x="380" y="450" as="targetPoint" />
            <Array as="points">
              <mxPoint x="380" y="150" />
              <mxPoint x="380" y="390" />
            </Array>
          </mxGeometry>
        </mxCell>
        <mxCell id="A43RT7BLHncz933INCX8-51" value="jobs with&lt;br&gt;upper_report_t" style="edgeLabel;html=1;align=center;verticalAlign=middle;resizable=0;points=[];labelBorderColor=default;rounded=1;" parent="A43RT7BLHncz933INCX8-49" vertex="1" connectable="0">
          <mxGeometry x="-0.5027" y="1" relative="1" as="geometry">
            <mxPoint as="offset" />
          </mxGeometry>
        </mxCell>
        <mxCell id="gou46OdMyQ_DH9dvmqBt-82" value="hw_t (hw=hardware) on Radio Layer" style="rounded=1;whiteSpace=wrap;html=1;fillColor=#dae8fc;strokeColor=none;verticalAlign=top;dashed=1;" parent="1" vertex="1">
          <mxGeometry x="190" y="860" width="820" height="200" as="geometry" />
        </mxCell>
        <mxCell id="tikB4HTSyY_nNc-XHg-T-27" value="" style="endArrow=classic;html=1;rounded=1;entryX=0.25;entryY=0;entryDx=0;entryDy=0;exitX=1;exitY=0.5;exitDx=0;exitDy=0;strokeColor=#009900;strokeWidth=3;" parent="1" source="tikB4HTSyY_nNc-XHg-T-18" target="tikB4HTSyY_nNc-XHg-T-26" edge="1">
          <mxGeometry width="50" height="50" relative="1" as="geometry">
            <mxPoint x="1000" y="870" as="sourcePoint" />
            <mxPoint x="1050" y="820" as="targetPoint" />
            <Array as="points">
              <mxPoint x="910" y="590" />
            </Array>
          </mxGeometry>
        </mxCell>
        <mxCell id="A43RT7BLHncz933INCX8-69" value="IQ samples of&lt;div&gt;TX packet&lt;br style=&quot;border-color: var(--border-color);&quot;&gt;+&lt;br style=&quot;border-color: var(--border-color);&quot;&gt;meta&lt;br&gt;information&lt;/div&gt;" style="edgeLabel;html=1;align=center;verticalAlign=middle;resizable=0;points=[];labelBorderColor=#009900;rounded=1;" parent="tikB4HTSyY_nNc-XHg-T-27" vertex="1" connectable="0">
          <mxGeometry x="0.496" y="-2" relative="1" as="geometry">
            <mxPoint x="2" y="-18" as="offset" />
          </mxGeometry>
        </mxCell>
        <mxCell id="gou46OdMyQ_DH9dvmqBt-74" value="baton_t" style="rounded=1;whiteSpace=wrap;html=1;fillColor=#f8cecc;strokeColor=#FF6666;strokeWidth=1;" parent="1" vertex="1">
          <mxGeometry x="325" y="524" width="80" height="30" as="geometry" />
        </mxCell>
        <mxCell id="tikB4HTSyY_nNc-XHg-T-16" value="" style="endArrow=classic;html=1;rounded=1;exitX=1;exitY=0.5;exitDx=0;exitDy=0;entryX=-0.005;entryY=0.552;entryDx=0;entryDy=0;entryPerimeter=0;strokeColor=#FF0000;strokeWidth=3;" parent="1" source="tikB4HTSyY_nNc-XHg-T-9" target="tikB4HTSyY_nNc-XHg-T-13" edge="1">
          <mxGeometry width="50" height="50" relative="1" as="geometry">
            <mxPoint x="540" y="610" as="sourcePoint" />
            <mxPoint x="539" y="684" as="targetPoint" />
          </mxGeometry>
        </mxCell>
        <mxCell id="tikB4HTSyY_nNc-XHg-T-15" value="" style="endArrow=classic;html=1;rounded=1;exitX=1;exitY=0.5;exitDx=0;exitDy=0;entryX=-0.004;entryY=0.4;entryDx=0;entryDy=0;entryPerimeter=0;strokeColor=#FF0000;strokeWidth=3;" parent="1" source="tikB4HTSyY_nNc-XHg-T-4" target="tikB4HTSyY_nNc-XHg-T-13" edge="1">
          <mxGeometry width="50" height="50" relative="1" as="geometry">
            <mxPoint x="530" y="600" as="sourcePoint" />
            <mxPoint x="628" y="713" as="targetPoint" />
          </mxGeometry>
        </mxCell>
        <mxCell id="tikB4HTSyY_nNc-XHg-T-17" value="" style="endArrow=classic;html=1;rounded=1;exitX=1;exitY=0.5;exitDx=0;exitDy=0;entryX=0;entryY=0.75;entryDx=0;entryDy=0;strokeColor=#FF0000;strokeWidth=3;" parent="1" source="tikB4HTSyY_nNc-XHg-T-10" target="tikB4HTSyY_nNc-XHg-T-13" edge="1">
          <mxGeometry width="50" height="50" relative="1" as="geometry">
            <mxPoint x="550" y="620" as="sourcePoint" />
            <mxPoint x="670" y="740" as="targetPoint" />
          </mxGeometry>
        </mxCell>
        <mxCell id="tikB4HTSyY_nNc-XHg-T-6" value="" style="endArrow=classic;html=1;rounded=1;entryX=0.5;entryY=1;entryDx=0;entryDy=0;exitX=0.5;exitY=0;exitDx=0;exitDy=0;strokeColor=light-dark(#ff0000, #ededed);strokeWidth=3;" parent="1" source="tikB4HTSyY_nNc-XHg-T-1" target="tikB4HTSyY_nNc-XHg-T-5" edge="1">
          <mxGeometry width="50" height="50" relative="1" as="geometry">
            <mxPoint x="320" y="890" as="sourcePoint" />
            <mxPoint x="370" y="840" as="targetPoint" />
          </mxGeometry>
        </mxCell>
        <mxCell id="tikB4HTSyY_nNc-XHg-T-14" value="" style="endArrow=classic;html=1;rounded=1;exitX=1;exitY=0.5;exitDx=0;exitDy=0;entryX=0;entryY=0.25;entryDx=0;entryDy=0;strokeColor=#FF0000;strokeWidth=3;" parent="1" source="tikB4HTSyY_nNc-XHg-T-3" target="tikB4HTSyY_nNc-XHg-T-13" edge="1">
          <mxGeometry width="50" height="50" relative="1" as="geometry">
            <mxPoint x="600" y="850" as="sourcePoint" />
            <mxPoint x="630" y="704" as="targetPoint" />
          </mxGeometry>
        </mxCell>
        <mxCell id="tikB4HTSyY_nNc-XHg-T-1" value="RX" style="rounded=1;whiteSpace=wrap;html=1;strokeWidth=3;" parent="1" vertex="1">
          <mxGeometry x="200" y="1000" width="120" height="40" as="geometry" />
        </mxCell>
        <mxCell id="tikB4HTSyY_nNc-XHg-T-3" value="worker_sync_t" style="rounded=1;whiteSpace=wrap;html=1;strokeWidth=3;" parent="1" vertex="1">
          <mxGeometry x="360" y="570" width="120" height="40" as="geometry" />
        </mxCell>
        <mxCell id="tikB4HTSyY_nNc-XHg-T-4" value="worker_sync_t" style="rounded=1;whiteSpace=wrap;html=1;strokeWidth=3;" parent="1" vertex="1">
          <mxGeometry x="360" y="630" width="120" height="40" as="geometry" />
        </mxCell>
        <mxCell id="tikB4HTSyY_nNc-XHg-T-5" value="buffer_rx_t" style="rounded=1;whiteSpace=wrap;html=1;fillColor=#f8cecc;strokeColor=#FF6666;strokeWidth=1;" parent="1" vertex="1">
          <mxGeometry x="200" y="933" width="120" height="40" as="geometry" />
        </mxCell>
        <mxCell id="tikB4HTSyY_nNc-XHg-T-7" value="" style="endArrow=classic;html=1;rounded=1;exitX=0.75;exitY=0;exitDx=0;exitDy=0;entryX=0;entryY=0.5;entryDx=0;entryDy=0;strokeColor=#009900;strokeWidth=3;" parent="1" source="tikB4HTSyY_nNc-XHg-T-5" target="tikB4HTSyY_nNc-XHg-T-3" edge="1">
          <mxGeometry width="50" height="50" relative="1" as="geometry">
            <mxPoint x="300" y="820" as="sourcePoint" />
            <mxPoint x="350" y="770" as="targetPoint" />
            <Array as="points">
              <mxPoint x="290" y="590" />
            </Array>
          </mxGeometry>
        </mxCell>
        <mxCell id="tikB4HTSyY_nNc-XHg-T-9" value="worker_sync_t" style="rounded=1;whiteSpace=wrap;html=1;strokeWidth=3;" parent="1" vertex="1">
          <mxGeometry x="360" y="690" width="120" height="40" as="geometry" />
        </mxCell>
        <mxCell id="tikB4HTSyY_nNc-XHg-T-10" value="worker_sync_t" style="rounded=1;whiteSpace=wrap;html=1;strokeWidth=3;" parent="1" vertex="1">
          <mxGeometry x="360" y="750" width="120" height="40" as="geometry" />
        </mxCell>
        <mxCell id="A43RT7BLHncz933INCX8-64" value="" style="endArrow=none;html=1;rounded=1;exitX=1;exitY=0.5;exitDx=0;exitDy=0;strokeColor=#009900;strokeWidth=3;" parent="1" source="tikB4HTSyY_nNc-XHg-T-19" edge="1">
          <mxGeometry width="50" height="50" relative="1" as="geometry">
            <mxPoint x="950" y="670" as="sourcePoint" />
            <mxPoint x="910" y="650" as="targetPoint" />
          </mxGeometry>
        </mxCell>
        <mxCell id="A43RT7BLHncz933INCX8-65" value="" style="endArrow=none;html=1;rounded=1;exitX=1;exitY=0.5;exitDx=0;exitDy=0;strokeColor=#009900;strokeWidth=3;" parent="1" source="tikB4HTSyY_nNc-XHg-T-20" edge="1">
          <mxGeometry width="50" height="50" relative="1" as="geometry">
            <mxPoint x="850" y="660" as="sourcePoint" />
            <mxPoint x="910" y="710" as="targetPoint" />
          </mxGeometry>
        </mxCell>
        <mxCell id="tikB4HTSyY_nNc-XHg-T-18" value="worker_tx_rx_t" style="rounded=1;whiteSpace=wrap;html=1;align=center;strokeWidth=3;" parent="1" vertex="1">
          <mxGeometry x="740" y="570" width="100" height="40" as="geometry" />
        </mxCell>
        <mxCell id="tikB4HTSyY_nNc-XHg-T-19" value="worker_tx_rx_t" style="rounded=1;whiteSpace=wrap;html=1;align=center;strokeWidth=3;" parent="1" vertex="1">
          <mxGeometry x="740" y="630" width="100" height="40" as="geometry" />
        </mxCell>
        <mxCell id="A43RT7BLHncz933INCX8-66" value="" style="endArrow=none;html=1;rounded=1;exitX=1;exitY=0.5;exitDx=0;exitDy=0;strokeColor=#009900;strokeWidth=3;" parent="1" source="tikB4HTSyY_nNc-XHg-T-21" edge="1">
          <mxGeometry width="50" height="50" relative="1" as="geometry">
            <mxPoint x="850" y="720" as="sourcePoint" />
            <mxPoint x="910" y="770" as="targetPoint" />
          </mxGeometry>
        </mxCell>
        <mxCell id="tikB4HTSyY_nNc-XHg-T-20" value="worker_tx_rx_t" style="rounded=1;whiteSpace=wrap;html=1;align=center;strokeWidth=3;" parent="1" vertex="1">
          <mxGeometry x="740" y="690" width="100" height="40" as="geometry" />
        </mxCell>
        <mxCell id="tikB4HTSyY_nNc-XHg-T-21" value="worker_tx_rx_t" style="rounded=1;whiteSpace=wrap;html=1;align=center;strokeWidth=3;" parent="1" vertex="1">
          <mxGeometry x="740" y="750" width="100" height="40" as="geometry" />
        </mxCell>
        <mxCell id="tikB4HTSyY_nNc-XHg-T-22" value="" style="endArrow=classic;html=1;rounded=1;entryX=0;entryY=0.5;entryDx=0;entryDy=0;exitX=1;exitY=0.5;exitDx=0;exitDy=0;strokeColor=#FF0000;strokeWidth=3;" parent="1" source="tikB4HTSyY_nNc-XHg-T-13" target="tikB4HTSyY_nNc-XHg-T-18" edge="1">
          <mxGeometry width="50" height="50" relative="1" as="geometry">
            <mxPoint x="780" y="800" as="sourcePoint" />
            <mxPoint x="830" y="750" as="targetPoint" />
          </mxGeometry>
        </mxCell>
        <mxCell id="tikB4HTSyY_nNc-XHg-T-23" value="" style="endArrow=classic;html=1;rounded=1;entryX=0;entryY=0.5;entryDx=0;entryDy=0;exitX=1;exitY=0.5;exitDx=0;exitDy=0;strokeColor=#FF0000;strokeWidth=3;" parent="1" source="tikB4HTSyY_nNc-XHg-T-13" target="tikB4HTSyY_nNc-XHg-T-19" edge="1">
          <mxGeometry width="50" height="50" relative="1" as="geometry">
            <mxPoint x="770" y="720" as="sourcePoint" />
            <mxPoint x="890" y="630" as="targetPoint" />
          </mxGeometry>
        </mxCell>
        <mxCell id="tikB4HTSyY_nNc-XHg-T-24" value="" style="endArrow=classic;html=1;rounded=1;entryX=0;entryY=0.5;entryDx=0;entryDy=0;exitX=1;exitY=0.5;exitDx=0;exitDy=0;strokeColor=#FF0000;strokeWidth=3;" parent="1" source="tikB4HTSyY_nNc-XHg-T-13" target="tikB4HTSyY_nNc-XHg-T-20" edge="1">
          <mxGeometry width="50" height="50" relative="1" as="geometry">
            <mxPoint x="790" y="730" as="sourcePoint" />
            <mxPoint x="890" y="690" as="targetPoint" />
          </mxGeometry>
        </mxCell>
        <mxCell id="tikB4HTSyY_nNc-XHg-T-25" value="" style="endArrow=classic;html=1;rounded=1;entryX=0;entryY=0.5;entryDx=0;entryDy=0;exitX=1;exitY=0.5;exitDx=0;exitDy=0;strokeColor=#FF0000;strokeWidth=3;" parent="1" source="tikB4HTSyY_nNc-XHg-T-13" target="tikB4HTSyY_nNc-XHg-T-21" edge="1">
          <mxGeometry width="50" height="50" relative="1" as="geometry">
            <mxPoint x="770" y="720" as="sourcePoint" />
            <mxPoint x="890" y="750" as="targetPoint" />
          </mxGeometry>
        </mxCell>
        <mxCell id="tikB4HTSyY_nNc-XHg-T-31" value="TX" style="rounded=1;whiteSpace=wrap;html=1;strokeWidth=3;" parent="1" vertex="1">
          <mxGeometry x="880" y="1000" width="120" height="40" as="geometry" />
        </mxCell>
        <mxCell id="tikB4HTSyY_nNc-XHg-T-32" value="" style="endArrow=classic;html=1;rounded=1;entryX=0.5;entryY=0;entryDx=0;entryDy=0;exitX=0.5;exitY=1;exitDx=0;exitDy=0;strokeColor=light-dark(#ff0000, #ededed);strokeWidth=3;" parent="1" source="tikB4HTSyY_nNc-XHg-T-26" target="tikB4HTSyY_nNc-XHg-T-31" edge="1">
          <mxGeometry width="50" height="50" relative="1" as="geometry">
            <mxPoint x="1300" y="970" as="sourcePoint" />
            <mxPoint x="1350" y="920" as="targetPoint" />
          </mxGeometry>
        </mxCell>
        <mxCell id="tikB4HTSyY_nNc-XHg-T-34" value="buffer_tx_t" style="rounded=1;whiteSpace=wrap;html=1;fillColor=#f8cecc;strokeColor=#FF6666;" parent="1" vertex="1">
          <mxGeometry x="930" y="920" width="60" height="20" as="geometry" />
        </mxCell>
        <mxCell id="tikB4HTSyY_nNc-XHg-T-35" value="buffer_tx_t" style="rounded=1;whiteSpace=wrap;html=1;fillColor=#f8cecc;strokeColor=#FF6666;" parent="1" vertex="1">
          <mxGeometry x="930" y="900" width="60" height="20" as="geometry" />
        </mxCell>
        <mxCell id="tikB4HTSyY_nNc-XHg-T-36" value="buffer_tx_t" style="rounded=1;whiteSpace=wrap;html=1;fillColor=#f8cecc;strokeColor=#FF6666;" parent="1" vertex="1">
          <mxGeometry x="930" y="880" width="60" height="20" as="geometry" />
        </mxCell>
        <mxCell id="gou46OdMyQ_DH9dvmqBt-92" style="edgeStyle=orthogonalEdgeStyle;rounded=1;orthogonalLoop=1;jettySize=auto;html=1;exitX=0.75;exitY=0;exitDx=0;exitDy=0;entryX=0.5;entryY=1;entryDx=0;entryDy=0;strokeColor=light-dark(#ff0000, #ededed);strokeWidth=3;" parent="1" source="tikB4HTSyY_nNc-XHg-T-57" target="A43RT7BLHncz933INCX8-7" edge="1">
          <mxGeometry relative="1" as="geometry">
            <mxPoint x="790" y="130" as="targetPoint" />
          </mxGeometry>
        </mxCell>
        <mxCell id="gou46OdMyQ_DH9dvmqBt-93" style="edgeStyle=orthogonalEdgeStyle;rounded=1;orthogonalLoop=1;jettySize=auto;html=1;entryX=0.25;entryY=0;entryDx=0;entryDy=0;exitX=0.5;exitY=1;exitDx=0;exitDy=0;strokeColor=light-dark(#ff0000, #ededed);strokeWidth=3;" parent="1" source="A43RT7BLHncz933INCX8-9" target="tikB4HTSyY_nNc-XHg-T-57" edge="1">
          <mxGeometry relative="1" as="geometry">
            <mxPoint x="584" y="142" as="sourcePoint" />
            <mxPoint x="500" y="190" as="targetPoint" />
          </mxGeometry>
        </mxCell>
        <mxCell id="tikB4HTSyY_nNc-XHg-T-57" value="tpoint_t (termination point) on Upper Layers" style="rounded=1;whiteSpace=wrap;html=1;verticalAlign=top;fillColor=#f8cecc;strokeColor=#b85450;" parent="1" vertex="1">
          <mxGeometry x="440" y="280" width="280" height="180" as="geometry" />
        </mxCell>
        <mxCell id="tikB4HTSyY_nNc-XHg-T-13" value="&lt;div style=&quot;&quot;&gt;&lt;span style=&quot;background-color: initial;&quot;&gt;&lt;font style=&quot;font-size: 12px;&quot;&gt;job_queue_t&lt;/font&gt;&lt;/span&gt;&lt;/div&gt;&lt;div style=&quot;&quot;&gt;&lt;font style=&quot;font-size: 12px;&quot;&gt;&lt;br&gt;&lt;/font&gt;&lt;/div&gt;&lt;font style=&quot;font-size: 12px;&quot;&gt;&lt;span style=&quot;background-color: initial;&quot;&gt;&lt;div style=&quot;&quot;&gt;&lt;div style=&quot;&quot;&gt;&lt;span style=&quot;background-color: initial;&quot;&gt;time_report_t&lt;/span&gt;&lt;/div&gt;&lt;span style=&quot;background-color: initial;&quot;&gt;&lt;div style=&quot;&quot;&gt;&lt;span style=&quot;background-color: initial;&quot;&gt;sync_report_t&lt;/span&gt;&lt;/div&gt;&lt;/span&gt;&lt;span style=&quot;background-color: initial;&quot;&gt;&lt;div style=&quot;&quot;&gt;&lt;span style=&quot;background-color: initial;&quot;&gt;upper_report_t&lt;/span&gt;&lt;/div&gt;&lt;/span&gt;&lt;/div&gt;&lt;/span&gt;&lt;/font&gt;" style="rounded=1;whiteSpace=wrap;html=1;fillColor=#f8cecc;strokeColor=#FF6666;strokeWidth=1;verticalAlign=top;align=center;" parent="1" vertex="1">
          <mxGeometry x="540" y="640" width="130" height="80" as="geometry" />
        </mxCell>
        <mxCell id="tikB4HTSyY_nNc-XHg-T-26" value="buffer_tx_pool_t" style="rounded=1;whiteSpace=wrap;html=1;fillColor=#f8cecc;strokeColor=#FF6666;strokeWidth=1;" parent="1" vertex="1">
          <mxGeometry x="880" y="940" width="120" height="40" as="geometry" />
        </mxCell>
        <mxCell id="-ow6geyWKCNMp3y7V0k2-1" value="" style="endArrow=classic;html=1;rounded=1;exitX=0.75;exitY=1;exitDx=0;exitDy=0;entryX=0.75;entryY=0;entryDx=0;entryDy=0;strokeColor=#FF0000;strokeWidth=3;" parent="1" source="tikB4HTSyY_nNc-XHg-T-3" target="tikB4HTSyY_nNc-XHg-T-4" edge="1">
          <mxGeometry width="50" height="50" relative="1" as="geometry">
            <mxPoint x="620" y="840" as="sourcePoint" />
            <mxPoint x="670" y="790" as="targetPoint" />
          </mxGeometry>
        </mxCell>
        <mxCell id="-ow6geyWKCNMp3y7V0k2-2" value="" style="endArrow=classic;html=1;rounded=1;entryX=0.75;entryY=0;entryDx=0;entryDy=0;exitX=0.75;exitY=1;exitDx=0;exitDy=0;strokeColor=#FF0000;strokeWidth=3;" parent="1" source="tikB4HTSyY_nNc-XHg-T-4" target="tikB4HTSyY_nNc-XHg-T-9" edge="1">
          <mxGeometry width="50" height="50" relative="1" as="geometry">
            <mxPoint x="490" y="700" as="sourcePoint" />
            <mxPoint x="500" y="670" as="targetPoint" />
          </mxGeometry>
        </mxCell>
        <mxCell id="-ow6geyWKCNMp3y7V0k2-3" value="" style="endArrow=classic;html=1;rounded=1;entryX=0.75;entryY=0;entryDx=0;entryDy=0;exitX=0.75;exitY=1;exitDx=0;exitDy=0;strokeColor=#FF0000;strokeWidth=3;" parent="1" source="tikB4HTSyY_nNc-XHg-T-9" target="tikB4HTSyY_nNc-XHg-T-10" edge="1">
          <mxGeometry width="50" height="50" relative="1" as="geometry">
            <mxPoint x="500" y="710" as="sourcePoint" />
            <mxPoint x="500" y="730" as="targetPoint" />
          </mxGeometry>
        </mxCell>
        <mxCell id="gou46OdMyQ_DH9dvmqBt-47" style="edgeStyle=orthogonalEdgeStyle;rounded=1;orthogonalLoop=1;jettySize=auto;html=1;entryX=0.5;entryY=0;entryDx=0;entryDy=0;exitX=0.5;exitY=1;exitDx=0;exitDy=0;strokeColor=light-dark(#ff0000, #ededed);strokeWidth=3;" parent="1" source="gou46OdMyQ_DH9dvmqBt-38" target="A43RT7BLHncz933INCX8-9" edge="1">
          <mxGeometry relative="1" as="geometry">
            <mxPoint x="506" y="98" as="sourcePoint" />
            <mxPoint x="490" y="110" as="targetPoint" />
          </mxGeometry>
        </mxCell>
        <mxCell id="gou46OdMyQ_DH9dvmqBt-38" value="app_server_t" style="rounded=1;whiteSpace=wrap;html=1;strokeWidth=3;" parent="1" vertex="1">
          <mxGeometry x="450" y="130" width="120" height="40" as="geometry" />
        </mxCell>
        <mxCell id="gou46OdMyQ_DH9dvmqBt-98" style="edgeStyle=orthogonalEdgeStyle;rounded=1;orthogonalLoop=1;jettySize=auto;html=1;exitX=0.5;exitY=0;exitDx=0;exitDy=0;entryX=0.5;entryY=1;entryDx=0;entryDy=0;strokeColor=light-dark(#ff0000, #ededed);strokeWidth=3;" parent="1" source="A43RT7BLHncz933INCX8-7" target="gou46OdMyQ_DH9dvmqBt-48" edge="1">
          <mxGeometry relative="1" as="geometry">
            <mxPoint x="710" y="110" as="sourcePoint" />
            <mxPoint x="754" y="96" as="targetPoint" />
            <Array as="points" />
          </mxGeometry>
        </mxCell>
        <mxCell id="gou46OdMyQ_DH9dvmqBt-48" value="app_client_t" style="rounded=1;whiteSpace=wrap;html=1;fillColor=default;strokeColor=#000000;strokeWidth=3;" parent="1" vertex="1">
          <mxGeometry x="590" y="130" width="120" height="40" as="geometry" />
        </mxCell>
        <mxCell id="gou46OdMyQ_DH9dvmqBt-83" value="keep_running" style="rounded=1;whiteSpace=wrap;html=1;fillColor=#97D077;strokeColor=#9AC7BF;strokeWidth=1;" parent="1" vertex="1">
          <mxGeometry x="540" y="760" width="120" height="30" as="geometry" />
        </mxCell>
        <mxCell id="gou46OdMyQ_DH9dvmqBt-84" value="keep_running" style="rounded=1;whiteSpace=wrap;html=1;fillColor=#97D077;strokeColor=#9AC7BF;strokeWidth=1;" parent="1" vertex="1">
          <mxGeometry x="540" y="1010" width="120" height="30" as="geometry" />
        </mxCell>
        <mxCell id="gou46OdMyQ_DH9dvmqBt-86" value="keep_running" style="rounded=1;whiteSpace=wrap;html=1;fillColor=#97D077;strokeColor=#9AC7BF;strokeWidth=1;" parent="1" vertex="1">
          <mxGeometry x="520" y="80" width="120" height="30" as="geometry" />
        </mxCell>
        <mxCell id="Zb1t8yd09HufglZ-RBHO-13" value="token_t" style="rounded=1;whiteSpace=wrap;html=1;fillColor=#f8cecc;strokeColor=#FF6666;strokeWidth=1;" parent="1" vertex="1">
          <mxGeometry x="780" y="510" width="80" height="30" as="geometry" />
        </mxCell>
        <mxCell id="-ow6geyWKCNMp3y7V0k2-4" value="" style="endArrow=classic;html=1;rounded=1;exitX=0.75;exitY=1;exitDx=0;exitDy=0;entryX=0.75;entryY=0;entryDx=0;entryDy=0;strokeColor=#FF0000;strokeWidth=3;" parent="1" source="tikB4HTSyY_nNc-XHg-T-10" target="tikB4HTSyY_nNc-XHg-T-3" edge="1">
          <mxGeometry width="50" height="50" relative="1" as="geometry">
            <mxPoint x="460" y="789.9999999999998" as="sourcePoint" />
            <mxPoint x="460" y="570" as="targetPoint" />
            <Array as="points">
              <mxPoint x="450" y="810" />
              <mxPoint x="370" y="810" />
              <mxPoint x="370" y="680" />
              <mxPoint x="370" y="550" />
              <mxPoint x="450" y="550" />
            </Array>
          </mxGeometry>
        </mxCell>
        <mxCell id="A43RT7BLHncz933INCX8-5" value="" style="endArrow=classic;startArrow=classic;html=1;rounded=1;exitX=0.5;exitY=0;exitDx=0;exitDy=0;entryX=1;entryY=0.5;entryDx=0;entryDy=0;strokeColor=light-dark(#FF0000,#EDEDED);strokeWidth=3;" parent="1" source="tikB4HTSyY_nNc-XHg-T-18" target="tikB4HTSyY_nNc-XHg-T-57" edge="1">
          <mxGeometry width="50" height="50" relative="1" as="geometry">
            <mxPoint x="910" y="490" as="sourcePoint" />
            <mxPoint x="750" y="350" as="targetPoint" />
            <Array as="points">
              <mxPoint x="790" y="370" />
            </Array>
          </mxGeometry>
        </mxCell>
        <mxCell id="A43RT7BLHncz933INCX8-46" value="work_start_imminent()&lt;br style=&quot;border-color: var(--border-color);&quot;&gt;work_regular()&lt;br style=&quot;border-color: var(--border-color);&quot;&gt;work_pcc()&lt;div&gt;work_pcc_crc_error()&lt;br&gt;work_pdc_async()&lt;br style=&quot;border-color: var(--border-color);&quot;&gt;work_upper()&lt;br style=&quot;border-color: var(--border-color);&quot;&gt;work_chscan_async()&lt;/div&gt;" style="edgeLabel;html=1;align=center;verticalAlign=middle;resizable=0;points=[];labelBorderColor=default;rounded=1;" parent="A43RT7BLHncz933INCX8-5" vertex="1" connectable="0">
          <mxGeometry x="0.2081" relative="1" as="geometry">
            <mxPoint x="7" y="16" as="offset" />
          </mxGeometry>
        </mxCell>
        <mxCell id="A43RT7BLHncz933INCX8-7" value="queue of datagrams" style="rounded=1;whiteSpace=wrap;html=1;fillColor=#f8cecc;strokeColor=#FF6666;strokeWidth=1;" parent="1" vertex="1">
          <mxGeometry x="610" y="190" width="80" height="40" as="geometry" />
        </mxCell>
        <mxCell id="A43RT7BLHncz933INCX8-9" value="queue of datagrams" style="rounded=1;whiteSpace=wrap;html=1;fillColor=#f8cecc;strokeColor=#FF6666;strokeWidth=1;" parent="1" vertex="1">
          <mxGeometry x="470" y="190" width="80" height="40" as="geometry" />
        </mxCell>
        <mxCell id="A43RT7BLHncz933INCX8-20" value="" style="endArrow=classic;html=1;rounded=1;entryX=0.25;entryY=0;entryDx=0;entryDy=0;exitX=0;exitY=0.5;exitDx=0;exitDy=0;strokeColor=light-dark(#ff0000, #ededed);strokeWidth=3;" parent="1" source="tikB4HTSyY_nNc-XHg-T-57" target="tikB4HTSyY_nNc-XHg-T-5" edge="1">
          <mxGeometry width="50" height="50" relative="1" as="geometry">
            <mxPoint x="440" y="365" as="sourcePoint" />
            <mxPoint x="220" y="460" as="targetPoint" />
            <Array as="points">
              <mxPoint x="230" y="370" />
            </Array>
          </mxGeometry>
        </mxCell>
        <mxCell id="A43RT7BLHncz933INCX8-21" value="poll atomic&lt;br&gt;64-bit&lt;br&gt;time counter" style="edgeLabel;html=1;align=center;verticalAlign=middle;resizable=0;points=[];labelBorderColor=default;rounded=1;" parent="A43RT7BLHncz933INCX8-20" vertex="1" connectable="0">
          <mxGeometry x="-0.0536" y="1" relative="1" as="geometry">
            <mxPoint x="-1" y="-93" as="offset" />
          </mxGeometry>
        </mxCell>
        <mxCell id="A43RT7BLHncz933INCX8-24" value="" style="endArrow=classic;startArrow=classic;html=1;rounded=1;exitX=0;exitY=0.5;exitDx=0;exitDy=0;entryX=0;entryY=0.25;entryDx=0;entryDy=0;strokeColor=light-dark(#ff0000, #ededed);strokeWidth=3;" parent="1" source="gou46OdMyQ_DH9dvmqBt-82" target="tikB4HTSyY_nNc-XHg-T-57" edge="1">
          <mxGeometry width="50" height="50" relative="1" as="geometry">
            <mxPoint x="180" y="480" as="sourcePoint" />
            <mxPoint x="400" y="340" as="targetPoint" />
            <Array as="points">
              <mxPoint x="160" y="960" />
              <mxPoint x="160" y="325" />
            </Array>
          </mxGeometry>
        </mxCell>
        <mxCell id="A43RT7BLHncz933INCX8-25" value="change hardware&lt;br&gt;settings (frequency,&amp;nbsp;&lt;div&gt;gain etc.) and read&lt;/div&gt;&lt;div&gt;current settings&lt;/div&gt;" style="edgeLabel;html=1;align=center;verticalAlign=middle;resizable=0;points=[];labelBorderColor=default;rounded=1;" parent="A43RT7BLHncz933INCX8-24" vertex="1" connectable="0">
          <mxGeometry x="0.1734" y="-1" relative="1" as="geometry">
            <mxPoint x="-1" y="-60" as="offset" />
          </mxGeometry>
        </mxCell>
        <mxCell id="A43RT7BLHncz933INCX8-42" value="Legend" style="swimlane;whiteSpace=wrap;html=1;rounded=1;strokeColor=default;swimlaneFillColor=light-dark(#ffffff, #212121);" parent="1" vertex="1">
          <mxGeometry x="927" y="51" width="200" height="333" as="geometry">
            <mxRectangle x="880" y="80" width="140" height="30" as="alternateBounds" />
          </mxGeometry>
        </mxCell>
        <mxCell id="A43RT7BLHncz933INCX8-35" value="Group of threads and resources that execute while keep_running==true" style="rounded=1;whiteSpace=wrap;html=1;fillColor=#dae8fc;strokeColor=none;verticalAlign=top;dashed=1;" parent="A43RT7BLHncz933INCX8-42" vertex="1">
          <mxGeometry x="20" y="160" width="160" height="100" as="geometry" />
        </mxCell>
        <mxCell id="A43RT7BLHncz933INCX8-36" value="keep_running" style="rounded=1;whiteSpace=wrap;html=1;fillColor=#97D077;strokeColor=#9AC7BF;strokeWidth=1;" parent="A43RT7BLHncz933INCX8-42" vertex="1">
          <mxGeometry x="40" y="220" width="120" height="30" as="geometry" />
        </mxCell>
        <mxCell id="A43RT7BLHncz933INCX8-34" value="Resource lockable&lt;br&gt;by threads" style="rounded=1;whiteSpace=wrap;html=1;fillColor=#f8cecc;strokeColor=#FF6666;strokeWidth=1;" parent="A43RT7BLHncz933INCX8-42" vertex="1">
          <mxGeometry x="40" y="100" width="120" height="40" as="geometry" />
        </mxCell>
        <mxCell id="A43RT7BLHncz933INCX8-33" value="Thread" style="rounded=1;whiteSpace=wrap;html=1;strokeWidth=3;" parent="A43RT7BLHncz933INCX8-42" vertex="1">
          <mxGeometry x="40" y="40" width="120" height="40" as="geometry" />
        </mxCell>
        <mxCell id="F44JMWNnyk-U6m3M4ErU-4" value="" style="endArrow=classic;html=1;rounded=0;exitX=0;exitY=1;exitDx=0;exitDy=0;strokeColor=light-dark(#ff0000, #ededed);strokeWidth=3;" parent="A43RT7BLHncz933INCX8-42" edge="1">
          <mxGeometry width="50" height="50" relative="1" as="geometry">
            <mxPoint x="10" y="282" as="sourcePoint" />
            <mxPoint x="93" y="282" as="targetPoint" />
          </mxGeometry>
        </mxCell>
        <mxCell id="F44JMWNnyk-U6m3M4ErU-7" value="&lt;span style=&quot;color: rgb(0, 0, 0); font-family: Helvetica; font-size: 12px; font-style: normal; font-variant-ligatures: normal; font-variant-caps: normal; font-weight: 400; letter-spacing: normal; orphans: 2; text-align: center; text-indent: 0px; text-transform: none; widows: 2; word-spacing: 0px; -webkit-text-stroke-width: 0px; white-space: normal; background-color: rgb(251, 251, 251); text-decoration-thickness: initial; text-decoration-style: initial; text-decoration-color: initial; float: none; display: inline !important;&quot;&gt;Information Flow&lt;/span&gt;" style="text;whiteSpace=wrap;html=1;" parent="A43RT7BLHncz933INCX8-42" vertex="1">
          <mxGeometry x="98" y="268" width="91" height="24" as="geometry" />
        </mxCell>
        <mxCell id="F44JMWNnyk-U6m3M4ErU-8" value="" style="endArrow=classic;html=1;rounded=0;exitX=0;exitY=1;exitDx=0;exitDy=0;strokeColor=light-dark(#009900,#EDEDED);strokeWidth=3;" parent="A43RT7BLHncz933INCX8-42" edge="1">
          <mxGeometry width="50" height="50" relative="1" as="geometry">
            <mxPoint x="10" y="313" as="sourcePoint" />
            <mxPoint x="93" y="313" as="targetPoint" />
          </mxGeometry>
        </mxCell>
        <mxCell id="F44JMWNnyk-U6m3M4ErU-9" value="&lt;span style=&quot;color: rgb(0, 0, 0); font-family: Helvetica; font-size: 12px; font-style: normal; font-variant-ligatures: normal; font-variant-caps: normal; font-weight: 400; letter-spacing: normal; orphans: 2; text-align: center; text-indent: 0px; text-transform: none; widows: 2; word-spacing: 0px; -webkit-text-stroke-width: 0px; white-space: normal; background-color: rgb(251, 251, 251); text-decoration-thickness: initial; text-decoration-style: initial; text-decoration-color: initial; float: none; display: inline !important;&quot;&gt;IQ Samples Flow&lt;/span&gt;" style="text;whiteSpace=wrap;html=1;" parent="A43RT7BLHncz933INCX8-42" vertex="1">
          <mxGeometry x="98" y="298" width="94" height="25" as="geometry" />
        </mxCell>
        <mxCell id="A43RT7BLHncz933INCX8-48" value="&lt;ul&gt;&lt;li&gt;&lt;span style=&quot;background-color: initial;&quot;&gt;&quot;firmware&quot; of the SDR&lt;/span&gt;&lt;/li&gt;&lt;li&gt;&lt;span style=&quot;background-color: initial;&quot;&gt;derives from tpoint_t&lt;/span&gt;&lt;/li&gt;&lt;li&gt;&lt;span style=&quot;background-color: initial;&quot;&gt;implements work_x() functions&lt;/span&gt;&lt;/li&gt;&lt;li&gt;manages application interface&lt;/li&gt;&lt;li&gt;&lt;span style=&quot;background-color: initial;&quot;&gt;manages hardware settings&lt;/span&gt;&lt;/li&gt;&lt;li&gt;&lt;span style=&quot;background-color: initial;&quot;&gt;contains HARQ buffer pool&lt;/span&gt;&lt;/li&gt;&lt;li&gt;&lt;span style=&quot;background-color: initial;&quot;&gt;access through token_t&lt;/span&gt;&lt;/li&gt;&lt;/ul&gt;" style="rounded=1;whiteSpace=wrap;html=1;fillColor=default;strokeColor=#000000;align=left;verticalAlign=top;" parent="1" vertex="1">
          <mxGeometry x="460" y="310" width="240" height="130" as="geometry" />
        </mxCell>
        <mxCell id="A43RT7BLHncz933INCX8-61" value="" style="endArrow=classic;html=1;rounded=1;entryX=0;entryY=0.5;entryDx=0;entryDy=0;strokeColor=#009900;strokeWidth=3;" parent="1" target="tikB4HTSyY_nNc-XHg-T-4" edge="1">
          <mxGeometry width="50" height="50" relative="1" as="geometry">
            <mxPoint x="290" y="650" as="sourcePoint" />
            <mxPoint x="320" y="660" as="targetPoint" />
          </mxGeometry>
        </mxCell>
        <mxCell id="A43RT7BLHncz933INCX8-62" value="" style="endArrow=classic;html=1;rounded=1;entryX=0;entryY=0.5;entryDx=0;entryDy=0;strokeColor=#009900;strokeWidth=3;" parent="1" target="tikB4HTSyY_nNc-XHg-T-9" edge="1">
          <mxGeometry width="50" height="50" relative="1" as="geometry">
            <mxPoint x="290" y="710" as="sourcePoint" />
            <mxPoint x="340" y="710" as="targetPoint" />
          </mxGeometry>
        </mxCell>
        <mxCell id="A43RT7BLHncz933INCX8-63" value="" style="endArrow=classic;html=1;rounded=1;entryX=0;entryY=0.5;entryDx=0;entryDy=0;strokeColor=#009900;strokeWidth=3;" parent="1" target="tikB4HTSyY_nNc-XHg-T-10" edge="1">
          <mxGeometry width="50" height="50" relative="1" as="geometry">
            <mxPoint x="290" y="770" as="sourcePoint" />
            <mxPoint x="300" y="780" as="targetPoint" />
          </mxGeometry>
        </mxCell>
        <mxCell id="A43RT7BLHncz933INCX8-67" value="" style="endArrow=classic;html=1;rounded=1;entryX=0;entryY=1;entryDx=0;entryDy=0;strokeColor=#009900;strokeWidth=3;" parent="1" target="tikB4HTSyY_nNc-XHg-T-18" edge="1">
          <mxGeometry width="50" height="50" relative="1" as="geometry">
            <mxPoint x="290" y="840" as="sourcePoint" />
            <mxPoint x="430" y="840" as="targetPoint" />
            <Array as="points">
              <mxPoint x="700" y="840" />
              <mxPoint x="700" y="650" />
            </Array>
          </mxGeometry>
        </mxCell>
        <mxCell id="A43RT7BLHncz933INCX8-68" value="IQ samples&lt;br&gt;ring buffer&lt;br&gt;+&lt;br&gt;atomic 64-bit&lt;br&gt;time counter" style="edgeLabel;html=1;align=center;verticalAlign=middle;resizable=0;points=[];labelBorderColor=#009900;rounded=1;" parent="A43RT7BLHncz933INCX8-67" vertex="1" connectable="0">
          <mxGeometry x="-0.8026" y="-1" relative="1" as="geometry">
            <mxPoint x="-66" y="46" as="offset" />
          </mxGeometry>
        </mxCell>
        <mxCell id="A43RT7BLHncz933INCX8-72" value="" style="endArrow=classic;html=1;rounded=1;entryX=0;entryY=0.75;entryDx=0;entryDy=0;strokeColor=#009900;strokeWidth=3;" parent="1" target="tikB4HTSyY_nNc-XHg-T-19" edge="1">
          <mxGeometry width="50" height="50" relative="1" as="geometry">
            <mxPoint x="700" y="680" as="sourcePoint" />
            <mxPoint x="700" y="900" as="targetPoint" />
          </mxGeometry>
        </mxCell>
        <mxCell id="A43RT7BLHncz933INCX8-73" value="" style="endArrow=classic;html=1;rounded=1;entryX=0;entryY=0.75;entryDx=0;entryDy=0;strokeColor=#009900;strokeWidth=3;" parent="1" target="tikB4HTSyY_nNc-XHg-T-20" edge="1">
          <mxGeometry width="50" height="50" relative="1" as="geometry">
            <mxPoint x="700" y="720" as="sourcePoint" />
            <mxPoint x="750" y="680" as="targetPoint" />
          </mxGeometry>
        </mxCell>
        <mxCell id="A43RT7BLHncz933INCX8-74" value="" style="endArrow=classic;html=1;rounded=1;strokeColor=#009900;strokeWidth=3;" parent="1" edge="1">
          <mxGeometry width="50" height="50" relative="1" as="geometry">
            <mxPoint x="700" y="780" as="sourcePoint" />
            <mxPoint x="740" y="780" as="targetPoint" />
          </mxGeometry>
        </mxCell>
        <mxCell id="A43RT7BLHncz933INCX8-75" value="job_t" style="rounded=1;whiteSpace=wrap;html=1;fillColor=#f8cecc;strokeColor=#FF6666;strokeWidth=1;" parent="1" vertex="1">
          <mxGeometry x="580" y="620" width="47" height="20" as="geometry" />
        </mxCell>
        <mxCell id="A43RT7BLHncz933INCX8-76" value="job_t" style="rounded=1;whiteSpace=wrap;html=1;fillColor=#f8cecc;strokeColor=#FF6666;strokeWidth=1;" parent="1" vertex="1">
          <mxGeometry x="580" y="600" width="47" height="20" as="geometry" />
        </mxCell>
        <mxCell id="A43RT7BLHncz933INCX8-77" value="job_t" style="rounded=1;whiteSpace=wrap;html=1;fillColor=#f8cecc;strokeColor=#FF6666;strokeWidth=1;" parent="1" vertex="1">
          <mxGeometry x="580" y="580" width="47" height="20" as="geometry" />
        </mxCell>
        <mxCell id="0YA6_7jP9U1p6VMblWgz-1" value="" style="endArrow=none;dashed=1;html=1;dashPattern=1 3;strokeWidth=3;rounded=0;strokeColor=light-dark(#ff0000, #ededed);" parent="1" edge="1">
          <mxGeometry width="50" height="50" relative="1" as="geometry">
            <mxPoint x="108" y="476" as="sourcePoint" />
            <mxPoint x="1135" y="476" as="targetPoint" />
          </mxGeometry>
        </mxCell>
        <mxCell id="fcTpW-OK2idnTcLYPNtl-2" value="Upper Layers" style="edgeLabel;html=1;align=center;verticalAlign=middle;resizable=0;points=[];fontColor=light-dark(#ff0000, #ededed);fontSize=17;labelBorderColor=#FF0000;" parent="1" vertex="1" connectable="0">
          <mxGeometry x="1023" y="457.0042857142858" as="geometry" />
        </mxCell>
        <mxCell id="fcTpW-OK2idnTcLYPNtl-3" value="Lower Layers" style="edgeLabel;html=1;align=center;verticalAlign=middle;resizable=0;points=[];fontColor=light-dark(#ff0000, #ededed);fontSize=17;labelBorderColor=#FF0000;" parent="1" vertex="1" connectable="0">
          <mxGeometry x="1023" y="494.0042857142858" as="geometry" />
        </mxCell>
        <mxCell id="fcTpW-OK2idnTcLYPNtl-4" value="Application Layer" style="edgeLabel;html=1;align=center;verticalAlign=middle;resizable=0;points=[];fontColor=light-dark(#ff0000, #ededed);fontSize=17;labelBorderColor=#FF0000;" parent="1" vertex="1" connectable="0">
          <mxGeometry x="796" y="239.0042857142858" as="geometry" />
        </mxCell>
      </root>
    </mxGraphModel>
  </diagram>
</mxfile>
